<svg xmlns="http://www.w3.org/2000/svg" viewBox="0 0 92.33 31.06"><defs><style>.cls-1{fill:#fff;}.cls-2{fill:#e9415f;}</style></defs><g id="Layer_2" data-name="Layer 2"><g id="Layer_1-2" data-name="Layer 1"><polygon class="cls-1" points="0 0 18.08 5.74 18.08 25.11 0 31.06 0 0"/><path class="cls-2" d="M14.21,13.93l-3.08.19c0-1.76-.73-2.65-2.07-2.65q-2.29,0-2.29,4.08a5.7,5.7,0,0,0,.62,3.2,2.06,2.06,0,0,0,1.75.84q1.81,0,2.22-2.37l2.85.18a5.1,5.1,0,0,1-1.68,3.42A5.15,5.15,0,0,1,9.1,22a5.23,5.23,0,0,1-4-1.72,6.83,6.83,0,0,1-1.55-4.74A7.06,7.06,0,0,1,5,10.88a5.09,5.09,0,0,1,4.11-1.8C12.13,9.08,13.83,10.69,14.21,13.93Z"/><path class="cls-1" d="M23.08,9.76V14A2.4,2.4,0,0,1,25.4,12.6a2.81,2.81,0,0,1,1.48.38,2,2,0,0,1,.86,1A4.64,4.64,0,0,1,28,15.69v5.67H25.46V16.52a7.66,7.66,0,0,0-.06-1.19,1,1,0,0,0-.31-.54.86.86,0,0,0-.61-.22,1.5,1.5,0,0,0-.94.37,2,2,0,0,0-.46,1.58v4.84H20.62V9.76Z"/><path class="cls-1" d="M32.54,21.36H30.08V12.78H32.4v1.6c.36-1.19,1-1.79,1.86-1.79l.45,0v2.49a2.5,2.5,0,0,0-1.2.24,1.77,1.77,0,0,0-.7.86,4.19,4.19,0,0,0-.27,1.66Z"/><path class="cls-1" d="M38.66,9.53v2.53H36.12V9.53Zm0,3.25v8.58H36.12V12.78Z"/><path class="cls-1" d="M43.19,9.76V14a2.42,2.42,0,0,1,2.32-1.35A2.78,2.78,0,0,1,47,13a2.08,2.08,0,0,1,.87,1,4.64,4.64,0,0,1,.25,1.74v5.67H45.58V16.52a6.28,6.28,0,0,0-.07-1.19.92.92,0,0,0-.31-.54.84.84,0,0,0-.6-.22,1.48,1.48,0,0,0-.94.37,2,2,0,0,0-.47,1.58v4.84H40.74V9.76Z"/><path class="cls-1" d="M49.36,16h4.06v1.85H49.36Z"/><path class="cls-1" d="M54.8,9.76h3.53a6.76,6.76,0,0,1,3.23.6,5.55,5.55,0,0,1,1.9,1.9,5.88,5.88,0,0,1,.84,3.27,6.06,6.06,0,0,1-1.47,4.16,5.13,5.13,0,0,1-4,1.67h-4Zm2.66,2.14v7.28h1.12a2.45,2.45,0,0,0,2.21-1.11,5,5,0,0,0,.31-4.56,2.75,2.75,0,0,0-1-1.25,2.8,2.8,0,0,0-1.46-.36Z"/><path class="cls-1" d="M73.44,21.36H71A6.07,6.07,0,0,1,70.87,20a3.62,3.62,0,0,1-1.29,1.22,3.36,3.36,0,0,1-1.45.3,2.84,2.84,0,0,1-1.95-.66,2.23,2.23,0,0,1-.74-1.76,2.69,2.69,0,0,1,.43-1.48,2.82,2.82,0,0,1,1.39-1.07,13.09,13.09,0,0,1,3.5-.57v-.49a1.1,1.1,0,0,0-1.25-1.25A1.31,1.31,0,0,0,68,15.51l-2.34-.23a2.68,2.68,0,0,1,1.39-2.07,5.48,5.48,0,0,1,2.62-.61,6.64,6.64,0,0,1,1.64.2,2.71,2.71,0,0,1,1.21.62,2.22,2.22,0,0,1,.59.86,5.68,5.68,0,0,1,.15,1.58v3.89A6,6,0,0,0,73.44,21.36Zm-2.68-4.11c-1.77.17-2.65.71-2.65,1.6a1.15,1.15,0,0,0,.28.78,1,1,0,0,0,.79.33,1.39,1.39,0,0,0,1.12-.56A2.06,2.06,0,0,0,70.76,18Z"/><path class="cls-1" d="M77.91,9.76v4.1A2.25,2.25,0,0,1,80,12.6a2.74,2.74,0,0,1,2.34,1.19,5.55,5.55,0,0,1,.86,3.28,5.45,5.45,0,0,1-.89,3.24,3.31,3.31,0,0,1-4,.93,3.35,3.35,0,0,1-1.1-1.2,4,4,0,0,0-.56,1.32H75.38V9.76Zm0,8.2a2.12,2.12,0,0,0,.38,1.36,1.12,1.12,0,0,0,.9.46,1.25,1.25,0,0,0,1-.56,4,4,0,0,0,.41-2.16,3.9,3.9,0,0,0-.42-2.29,1.27,1.27,0,0,0-1-.47,1.14,1.14,0,0,0-1,.53,2.54,2.54,0,0,0-.37,1.49Z"/><path class="cls-1" d="M92.33,21.36H89.88A6.07,6.07,0,0,1,89.76,20a3.62,3.62,0,0,1-1.29,1.22,3.36,3.36,0,0,1-1.45.3,2.84,2.84,0,0,1-2-.66,2.23,2.23,0,0,1-.74-1.76,2.77,2.77,0,0,1,.43-1.48,2.84,2.84,0,0,1,1.4-1.07A12.92,12.92,0,0,1,89.65,16v-.49a1.1,1.1,0,0,0-1.25-1.25,1.31,1.31,0,0,0-1.48,1.25l-2.33-.23A2.65,2.65,0,0,1,86,13.21a5.48,5.48,0,0,1,2.62-.61,6.78,6.78,0,0,1,1.65.2,2.73,2.73,0,0,1,1.2.62,2.11,2.11,0,0,1,.59.86,5.68,5.68,0,0,1,.15,1.58v3.89A6,6,0,0,0,92.33,21.36Zm-2.68-4.11c-1.77.17-2.65.71-2.65,1.6a1.15,1.15,0,0,0,.28.78,1,1,0,0,0,.79.33,1.42,1.42,0,0,0,1.13-.56A2.11,2.11,0,0,0,89.65,18Z"/></g></g></svg>